<?xml version="1.0" encoding="UTF-8"?>
<svg width="350px" height="406px" viewBox="0 0 350 406" version="1.1" xmlns="http://www.w3.org/2000/svg" xmlns:xlink="http://www.w3.org/1999/xlink">
    <!-- Generator: Sketch 55.2 (78181) - https://sketchapp.com -->
    <title>automation-icon</title>
    <desc>Created with Sketch.</desc>
    <defs>
        <polygon id="path-1" points="0.000397727273 0 350 0 350 405.68142 0.000397727273 405.68142"></polygon>
    </defs>
    <g id="Page-1" stroke="none" stroke-width="1" fill="none" fill-rule="evenodd">
        <g id="automation-icon">
            <path d="M132.524318,197.759545 C127.524886,197.759545 123.460114,193.702727 123.460114,188.719205 C123.460114,183.731705 127.524886,179.674886 132.524318,179.674886 C137.52375,179.674886 141.588523,183.731705 141.588523,188.719205 C141.588523,193.702727 137.52375,197.759545 132.524318,197.759545 M132.524318,169.508977 C121.905,169.508977 113.270341,178.12375 113.270341,188.719205 C113.270341,199.310682 121.905,207.925455 132.524318,207.925455 C143.143636,207.925455 151.778295,199.310682 151.778295,188.719205 C151.778295,178.12375 143.143636,169.508977 132.524318,169.508977" id="Fill-1" fill="#005DFF" fill-rule="nonzero"></path>
            <path d="M208.413068,324.074148 L220.2375,329.972443 L208.413068,335.866761 L208.413068,324.074148 Z M42.4693182,202.842898 C42.4693182,238.157102 56.2625,271.359375 81.2954545,296.33267 C106.324432,321.309943 139.602273,335.063352 175,335.063352 L198.223295,335.063352 L198.223295,344.095739 C198.223295,345.861648 199.134091,347.496307 200.633523,348.423011 C201.456818,348.924148 202.383523,349.178693 203.318182,349.178693 C204.101705,349.178693 204.88125,349.00767 205.597159,348.649716 L233.919318,334.522443 C235.6375,333.663352 236.73125,331.90142 236.73125,329.972443 C236.73125,328.047443 235.645455,326.289489 233.919318,325.42642 L205.597159,311.29517 C204.022159,310.50767 202.140909,310.59517 200.633523,311.521875 C199.134091,312.444602 198.223295,314.079261 198.223295,315.84517 L198.223295,324.889489 L175,324.889489 C142.326705,324.889489 111.60625,312.190057 88.4982955,289.141761 C65.3943182,266.089489 52.6670455,235.444602 52.6670455,202.842898 C52.6670455,170.24517 65.3943182,139.596307 88.4982955,116.544034 C136.201705,68.9599432 213.80625,68.9599432 261.509659,116.544034 C309.205114,164.128125 309.205114,241.55767 261.509659,289.141761 L268.7125,296.33267 C320.385227,244.783239 320.385227,160.906534 268.7125,109.357102 C217.047727,57.8076705 132.960227,57.8036932 81.2954545,109.357102 C56.2625,134.32642 42.4693182,167.528693 42.4693182,202.842898 L42.4693182,202.842898 Z" id="Fill-3" fill="#005DFF" fill-rule="nonzero"></path>
            <g id="Group-7">
                <g id="Fill-5-Clipped">
                    <mask id="mask-2" fill="white">
                        <use xlink:href="#path-1"></use>
                    </mask>
                    <g id="path-1"></g>
                    <path d="M339.810625,298.796193 L175.000398,394.708125 L10.1901705,298.796193 L10.1901705,106.888807 L175.000398,10.976875 L339.810625,106.888807 L339.810625,298.796193 Z M347.470852,99.570625 L177.565739,0.691647727 C175.990739,-0.231079545 174.010057,-0.231079545 172.435057,0.691647727 L2.52994318,99.570625 C0.962897727,100.48142 0.000397727273,102.155852 0.000397727273,103.965511 L0.000397727273,301.719489 C0.000397727273,303.529148 0.962897727,305.20358 2.52994318,306.114375 L172.435057,404.993352 C173.222557,405.454716 174.113466,405.68142 175.000398,405.68142 C175.88733,405.68142 176.778239,405.454716 177.565739,404.993352 L347.470852,306.114375 C349.041875,305.20358 350.004375,303.529148 350.004375,301.719489 L350.004375,103.965511 C350.004375,102.155852 349.041875,100.48142 347.470852,99.570625 L347.470852,99.570625 Z" id="Fill-5" fill="#005DFF" fill-rule="nonzero" mask="url(#mask-2)"></path>
                </g>
            </g>
            <path d="M167.568466,201.145795 C166.025284,205.465114 163.766193,209.386705 160.850852,212.807159 C159.446875,214.445795 159.232102,216.788409 160.309943,218.649773 L166.144602,228.720227 L150.450284,237.764545 L144.62358,227.686136 C143.537784,225.824773 141.441761,224.838409 139.278125,225.232159 C134.859375,226.043523 130.325284,226.039545 125.791193,225.204318 C123.659375,224.8225 121.531534,225.804886 120.461648,227.66625 L114.607102,237.768523 L98.9127841,228.728182 L104.695739,218.733295 C105.769602,216.871932 105.562784,214.533295 104.158807,212.898636 C102.699148,211.180455 101.315057,209.374773 100.153693,207.36625 C98.9883523,205.345795 98.109375,203.249773 97.3497159,201.133864 C96.6298295,199.109432 94.7088068,197.761136 92.5491477,197.761136 L80.9832386,197.761136 L80.9832386,179.680455 L92.6764205,179.680455 C94.8321023,179.680455 96.753125,178.324205 97.4809659,176.295795 C99.0082386,172.000341 101.275284,168.066818 104.206534,164.618523 C105.602557,162.975909 105.809375,160.645227 104.739489,158.783864 L98.9048295,148.713409 L114.607102,139.665114 L120.433807,149.7475 C121.519602,151.604886 123.619602,152.595227 125.775284,152.201477 C130.190057,151.390114 134.732102,151.390114 139.266193,152.225341 C141.330398,152.595227 143.509943,151.624773 144.603693,149.763409 L150.44233,139.665114 L166.144602,148.713409 L160.365625,158.700341 C159.283807,160.561705 159.494602,162.900341 160.890625,164.535 C162.350284,166.245227 163.730398,168.058864 164.895739,170.067386 C166.06108,172.079886 166.940057,174.175909 167.699716,176.295795 C168.419602,178.324205 170.340625,179.676477 172.496307,179.676477 L184.062216,179.676477 L184.07017,197.761136 L172.373011,197.761136 C170.21733,197.761136 168.296307,199.117386 167.568466,201.145795 L167.568466,201.145795 Z M189.165057,207.927045 C190.521307,207.927045 191.81392,207.394091 192.768466,206.435568 C193.730966,205.485 194.259943,204.188409 194.259943,202.844091 L194.255966,174.585568 C194.255966,171.777614 191.973011,169.502614 189.16108,169.502614 L175.97642,169.502614 C175.32017,167.971364 174.580398,166.467955 173.721307,164.976477 C172.866193,163.500909 171.92358,162.108864 170.929261,160.784432 L177.52358,149.389545 C178.927557,146.963409 178.09233,143.849205 175.658239,142.445227 L151.130398,128.31 C149.96108,127.641818 148.549148,127.454886 147.256534,127.808864 C145.948011,128.158864 144.838352,129.01 144.158239,130.175341 L137.496307,141.6975 C134.15142,141.339545 130.830398,141.335568 127.541193,141.677614 L120.891193,130.179318 C119.479261,127.745227 116.353125,126.91 113.919034,128.317955 L89.3911932,142.445227 C88.221875,143.121364 87.3667614,144.231023 87.0207386,145.535568 C86.6667614,146.836136 86.8536932,148.224205 87.5258523,149.389545 L94.1877841,160.895795 C92.2349432,163.584432 90.5724432,166.46 89.2201705,169.510568 L75.8883523,169.510568 C73.0764205,169.510568 70.7934659,171.785568 70.7934659,174.593523 L70.7934659,202.844091 C70.7934659,205.656023 73.0764205,207.931023 75.8883523,207.931023 L89.0730114,207.931023 C89.7292614,209.458295 90.4690341,210.965682 91.328125,212.449205 C92.1832386,213.932727 93.1258523,215.324773 94.128125,216.657159 L87.5298295,228.044091 C86.1258523,230.478182 86.9650568,233.588409 89.3991477,234.996364 L113.919034,249.115682 C114.722443,249.577045 115.60142,249.799773 116.464489,249.799773 C118.22642,249.799773 119.940625,248.888977 120.883239,247.258295 L127.56108,235.736136 C130.894034,236.094091 134.226989,236.102045 137.516193,235.756023 L144.174148,247.254318 C144.846307,248.419659 145.955966,249.274773 147.264489,249.620795 C148.573011,249.970795 149.96108,249.783864 151.134375,249.115682 L175.658239,234.992386 C178.09233,233.584432 178.927557,230.474205 177.52358,228.044091 L170.865625,216.541818 C172.814489,213.865114 174.469034,210.981591 175.825284,207.931023 L189.165057,207.927045 Z" id="Fill-8" fill="#005DFF" fill-rule="nonzero"></path>
            <path d="M269.017955,240.135398 L256.028182,240.135398 C254.214545,240.135398 252.536136,241.09392 251.621364,242.660966 C250.607159,244.403011 249.378182,245.989943 247.96625,247.397898 C246.570227,248.789943 244.971364,250.01892 243.229318,251.033125 C241.662273,251.94392 240.699773,253.618352 240.699773,255.428011 L240.699773,268.385966 L222.571364,268.385966 L222.571364,255.428011 C222.571364,253.618352 221.612841,251.94392 220.041818,251.033125 C218.299773,250.01892 216.704886,248.789943 215.292955,247.385966 C213.896932,245.989943 212.667955,244.403011 211.649773,242.660966 C210.735,241.09392 209.056591,240.135398 207.246932,240.135398 L194.257159,240.135398 L194.257159,222.050739 L207.246932,222.050739 C209.064545,222.050739 210.735,221.092216 211.649773,219.521193 C212.66,217.795057 213.888977,216.204148 215.308864,214.788239 C216.704886,213.396193 218.299773,212.167216 220.041818,211.153011 C221.612841,210.242216 222.571364,208.567784 222.571364,206.762102 L222.571364,193.80017 L240.699773,193.80017 L240.699773,206.762102 C240.699773,208.567784 241.662273,210.242216 243.229318,211.153011 C244.971364,212.167216 246.570227,213.396193 247.978182,214.80017 C249.382159,216.204148 250.615114,217.795057 251.621364,219.521193 C252.536136,221.092216 254.206591,222.050739 256.028182,222.050739 L269.017955,222.050739 L269.017955,240.135398 Z M279.207727,245.218352 L279.207727,216.967784 C279.207727,214.15983 276.924773,211.88483 274.112841,211.88483 L258.808295,211.88483 C257.714545,210.35358 256.505455,208.925739 255.181023,207.617216 C253.868523,206.292784 252.432727,205.075739 250.889545,203.99392 L250.889545,188.717216 C250.889545,185.909261 248.610568,183.634261 245.794659,183.634261 L217.476477,183.634261 C214.660568,183.634261 212.381591,185.909261 212.381591,188.717216 L212.381591,203.99392 C210.842386,205.075739 209.410568,206.292784 208.102045,207.601307 C206.777614,208.917784 205.556591,210.35358 204.470795,211.88483 L189.158295,211.88483 C186.346364,211.88483 184.063409,214.15983 184.063409,216.967784 L184.063409,245.218352 C184.063409,248.026307 186.346364,250.301307 189.158295,250.301307 L204.470795,250.301307 C205.556591,251.840511 206.777614,253.268352 208.090114,254.572898 C209.402614,255.89733 210.842386,257.110398 212.381591,258.192216 L212.381591,273.46892 C212.381591,276.276875 214.660568,278.551875 217.476477,278.551875 L245.794659,278.551875 C248.610568,278.551875 250.889545,276.276875 250.889545,273.46892 L250.889545,258.192216 C252.432727,257.110398 253.860568,255.89733 255.169091,254.58483 C256.4975,253.276307 257.706591,251.840511 258.800341,250.301307 L274.112841,250.301307 C276.924773,250.301307 279.207727,248.026307 279.207727,245.218352 L279.207727,245.218352 Z" id="Fill-10" fill="#005DFF" fill-rule="nonzero"></path>
            <path d="M231.635966,223.858409 C229.635398,223.858409 227.821761,224.665795 226.509261,225.974318 C225.196761,227.286818 224.385398,229.0925 224.385398,231.093068 C224.385398,233.093636 225.196761,234.899318 226.509261,236.211818 C227.821761,237.520341 229.635398,238.327727 231.635966,238.327727 C233.636534,238.327727 235.45017,237.520341 236.766648,236.211818 C238.07517,234.899318 238.886534,233.093636 238.886534,231.093068 C238.886534,229.0925 238.07517,227.286818 236.766648,225.974318 C235.45017,224.665795 233.636534,223.858409 231.635966,223.858409" id="Fill-12" fill="#005DFF" fill-rule="nonzero"></path>
        </g>
    </g>
</svg>